<?xml version="1.0" encoding="UTF-8"?>
<svg id="_图层_1" xmlns="http://www.w3.org/2000/svg" xmlns:xlink="http://www.w3.org/1999/xlink" version="1.1" viewBox="0 0 862.58 410.72">
  <!-- Generator: Adobe Illustrator 30.0.0, SVG Export Plug-In . SVG Version: 2.1.1 Build 123)  -->
  <defs>
    <style>
      .st0 {
        fill: url(#_未命名的渐变_2);
      }

      .st1 {
        fill: url(#_未命名的渐变_5);
      }

      .st2 {
        fill: url(#_未命名的渐变_4);
      }

      .st3 {
        fill: url(#_未命名的渐变_3);
      }

      .st4 {
        fill: #173d88;
      }

      .st5 {
        fill: #04255a;
      }

      .st6 {
        fill: url(#_未命名的渐变);
      }

      .st7 {
        fill: #032352;
      }

      .st8 {
        fill: #2891ec;
      }
    </style>
    <linearGradient id="_未命名的渐变" data-name="未命名的渐变" x1="563.48" y1="419.05" x2="331.05" y2="334.53" gradientTransform="translate(0 512) scale(1 -1)" gradientUnits="userSpaceOnUse">
      <stop offset="0" stop-color="#2188ef"/>
      <stop offset=".27" stop-color="#2aaaf1"/>
      <stop offset="1" stop-color="#2954ba"/>
    </linearGradient>
    <linearGradient id="_未命名的渐变_2" data-name="未命名的渐变 2" x1="494.92" y1="374.04" x2="431.53" y2="521.17" gradientTransform="translate(0 512) scale(1 -1)" gradientUnits="userSpaceOnUse">
      <stop offset="0" stop-color="#2188ef"/>
      <stop offset=".27" stop-color="#2aaaf1"/>
      <stop offset="1" stop-color="#2954ba"/>
    </linearGradient>
    <linearGradient id="_未命名的渐变_3" data-name="未命名的渐变 3" x1="314.88" y1="269.5" x2="395.49" y2="446.37" gradientTransform="translate(0 512) scale(1 -1)" gradientUnits="userSpaceOnUse">
      <stop offset="0" stop-color="#2188ef"/>
      <stop offset="1" stop-color="#20468f"/>
    </linearGradient>
    <linearGradient id="_未命名的渐变_4" data-name="未命名的渐变 4" x1="588.82" y1="235.04" x2="511.34" y2="332.08" gradientTransform="translate(0 512) scale(1 -1)" gradientUnits="userSpaceOnUse">
      <stop offset="0" stop-color="#2188ef"/>
      <stop offset="1" stop-color="#2954ba"/>
    </linearGradient>
    <linearGradient id="_未命名的渐变_5" data-name="未命名的渐变 5" x1="610.69" y1="168.04" x2="715.3" y2="168.04" gradientTransform="translate(0 512) scale(1 -1)" gradientUnits="userSpaceOnUse">
      <stop offset="0" stop-color="#5b95f9"/>
      <stop offset="1" stop-color="#2954ba"/>
    </linearGradient>
  </defs>
  <path class="st6" d="M325.37,111.92s-33.85,17.02-43.24,39.13c-9.39,22.11,9.78,33.85,35.61,37.17,25.83,3.33,85.89,2.35,141.26-19.57,55.37-21.91,83.74-36.59,117.59-71.22h33.46s-33.52,54.33-131.09,95.02c-97.57,40.7-147.47,33.92-176.87,28.43-32.48-6.07-58.17-22.7-53.22-49.3s37.57-47.15,75.72-61.24l.78,1.57h0Z"/>
  <path class="st0" d="M398.15,0h67.5c3.33,0,6.07,4.11,6.07,4.11,0,0,38.54,81,56.15,119-7.63,5.72-55.56,27.35-55.56,27.35l-41.87-85.89s-23.48-48.2-25.96-53.55S396.24.24,396.24.24c1.13-.29,1.91-.23,1.91-.23h0Z"/>
  <path class="st3" d="M430.44,64.58s-30.72,65.34-52.44,113.28c-36.78,7.82-68.67,1.17-68.67,1.17,0,0,77.48-166.5,80.41-172.95,1.83-4.02,4.64-5.38,6.5-5.84,0,0,5.76,5.44,8.24,10.79,2.48,5.35,25.96,53.55,25.96,53.55Z"/>
  <path class="st4" d="M291.54,218.48l-15.28,31.57h66.33s4.11-.98,6.26-4.7c2.15-3.72,7.04-16.83,7.04-16.83,0,0-41.87,1.39-55.27-7.92"/>
  <path class="st2" d="M491.09,193.9s36.39-15.85,56.93-29.54l39.13,82.76s.2,2.15-2.74,2.54c-2.93.39-60.26,0-60.26,0,0,0-8.02-.59-9.78-4.7s-23.28-51.07-23.28-51.07h0Z"/>
  <path class="st7" d="M0,392.88h22.89l47.35-76.89,47.15,76.89h22.7l-54.83-93.07c-1.31-2.22-3.69-3.58-6.26-3.58h-17.53c-2.57,0-4.94,1.35-6.25,3.56L0,392.88Z"/>
  <path class="st7" d="M172.17,296.22h19.24c.71,0,1.4.28,1.91.77l72.38,70.25v-68.28c0-1.51,1.23-2.74,2.74-2.74h14.48c1.51,0,2.74,1.23,2.74,2.74v91.17c0,1.51-1.23,2.74-2.74,2.74h-18.07c-.71,0-1.39-.27-1.9-.77l-72.97-70.26v68.28c0,1.51-1.23,2.74-2.74,2.74h-15.07c-1.51,0-2.74-1.23-2.74-2.74v-91.17c0-1.51,1.23-2.74,2.74-2.74h0Z"/>
  <path class="st7" d="M749.1,296.22h19.24c.71,0,1.4.28,1.91.77l72.38,70.25v-68.28c0-1.51,1.23-2.74,2.74-2.74h14.48c1.51,0,2.74,1.23,2.74,2.74v91.17c0,1.51-1.23,2.74-2.74,2.74h-18.07c-.71,0-1.39-.27-1.9-.77l-72.97-70.26v68.28c0,1.51-1.23,2.74-2.74,2.74h-15.07c-1.51,0-2.74-1.23-2.74-2.74v-91.17c0-1.51,1.23-2.74,2.74-2.74h0Z"/>
  <polygon class="st7" points="411.07 392.88 440.22 392.88 381.16 340.7 439.04 296.22 409.3 296.22 338.48 350.98 338.48 296.22 318.91 296.22 318.91 392.88 338.48 392.88 338.48 373.49 365.56 352.68 411.07 392.88"/>
  <path class="st7" d="M551.25,334.77h-55.66c-5.51,0-9.98-4.47-9.98-9.98s4.47-9.98,9.98-9.98h78.46v-18.59h-78.65c-15.88,0-28.76,12.88-28.76,28.76h0c0,15.88,12.88,28.76,28.76,28.76h54.59c5.73,0,10.37,4.64,10.37,10.37s-4.64,10.37-10.37,10.37h-81.2v18.39h82.47c16.05,0,29.05-13.01,29.05-29.05h0c0-16.05-13.01-29.05-29.05-29.05h-.01Z"/>
  <path class="st1" d="M712.3,334.18h-101.61v19.57h101.61c1.66,0,3-1.34,3-3v-13.57c0-1.66-1.34-3-3-3Z"/>
  <path class="st7" d="M715.3,312.59v-13.57c0-1.66-1.34-3-3-3h-91.53c-4.99,0-9.03,4.04-9.03,9.03v10.53h100.57c1.66,0,3-1.34,3-3h-.01Z"/>
  <path class="st7" d="M635.93,373.9c-2.56,0-4.63-2.07-4.63-4.63v-6.72h-20.61v10.5c0,10.95,8.88,19.83,19.83,19.83h81.78c1.66,0,3-1.34,3-3v-12.98c0-1.66-1.34-3-3-3h-76.37Z"/>
  <rect class="st7" x=".78" y="484.38" width="157.83" height="1.83"/>
  <rect class="st7" x="704.76" y="484.38" width="157.83" height="1.83"/>
  <path class="st7" d="M77.52,422.89h5.36c6.97,0,10.5,3.42,10.5,9.26s-3.54,9.44-10.4,9.44h-5.47v-18.7h.01ZM82.72,439.83c5.6,0,8.39-2.86,8.39-7.68s-2.79-7.5-8.39-7.5h-3.03v15.18h3.03Z"/>
  <path class="st7" d="M133.19,441.92c-5.89,0-9.97-3.7-9.97-9.67s4.21-9.69,10.1-9.69c3.19,0,5.14,1.2,6.4,2.32l-1.29,1.38c-1.15-1-2.68-1.84-5.06-1.84-4.66,0-7.88,3.01-7.88,7.78s3,7.86,7.93,7.86c1.74,0,3.54-.46,4.47-1.17v-5.1h-5.12v-1.76h7.18v7.73c-1.45,1.25-3.64,2.17-6.78,2.17h.02Z"/>
  <path class="st7" d="M174.52,424.68h-7.13v-1.79h16.5v1.79h-7.15v16.92h-2.22v-16.92Z"/>
  <path class="st7" d="M205.06,435.72h-8.52l-2.3,5.87h-2.33l7.61-18.7h2.65l7.64,18.7h-2.41l-2.33-5.87h0ZM204.55,434.09l-1.26-3.16c-.83-2.14-1.61-4.13-2.41-6.3h-.11c-.78,2.17-1.61,4.18-2.41,6.3l-1.26,3.16h7.45Z"/>
  <path class="st7" d="M222.28,422.89h2.2v16.91h10.24v1.79h-12.43v-18.7h-.01Z"/>
  <path class="st7" d="M304.02,422.89h2.25l8.68,12.02,2.68,3.93h.13c-.19-1.86-.27-3.93-.27-5.84v-10.1h2.09v18.7h-2.28l-8.68-12.04-2.63-3.93h-.13c.11,1.89.24,3.8.24,5.74v10.23h-2.09v-18.7h.01Z"/>
  <path class="st7" d="M338.26,424.68h-7.13v-1.79h16.51v1.79h-7.15v16.92h-2.22v-16.92h-.01Z"/>
  <path class="st7" d="M359.97,422.89h12.75v1.79h-10.58v6.17h8.57v1.81h-8.57v7.12h10.91v1.81h-13.08v-18.7h0Z"/>
  <path class="st7" d="M385.59,422.89h2.2v16.91h10.24v1.79h-12.43v-18.7h-.01Z"/>
  <path class="st7" d="M409.85,422.89h2.2v16.91h10.24v1.79h-12.43v-18.7h-.01Z"/>
  <path class="st7" d="M460.16,441.92c-5.89,0-9.97-3.7-9.97-9.67s4.21-9.69,10.1-9.69c3.19,0,5.14,1.2,6.4,2.32l-1.29,1.38c-1.15-1-2.68-1.84-5.06-1.84-4.66,0-7.88,3.01-7.88,7.78s3,7.86,7.93,7.86c1.74,0,3.54-.46,4.47-1.17v-5.1h-5.12v-1.76h7.18v7.73c-1.45,1.25-3.64,2.17-6.78,2.17h.02Z"/>
  <path class="st7" d="M480.46,422.89h12.75v1.79h-10.58v6.17h8.57v1.81h-8.57v7.12h10.91v1.81h-13.08v-18.7h0Z"/>
  <path class="st7" d="M507.05,422.89h2.25l8.68,12.02,2.68,3.93h.13c-.19-1.86-.27-3.93-.27-5.84v-10.1h2.09v18.7h-2.28l-8.68-12.04-2.63-3.93h-.13c.11,1.89.24,3.8.24,5.74v10.23h-2.09v-18.7h.01Z"/>
  <path class="st7" d="M545.33,441.9c-5.63,0-9.62-3.67-9.62-9.64s3.96-9.67,9.78-9.67c2.71,0,4.8,1.07,6.08,2.27l-1.26,1.38c-1.21-1.07-2.87-1.81-4.8-1.81-4.58,0-7.53,3.06-7.53,7.78s2.97,7.83,7.45,7.83c2.2,0,3.97-.79,5.49-2.17l1.26,1.38c-1.82,1.71-3.91,2.65-6.86,2.65h0Z"/>
  <path class="st7" d="M565.29,422.89h12.75v1.79h-10.58v6.17h8.57v1.81h-8.57v7.12h10.91v1.81h-13.08v-18.7h0Z"/>
  <path class="st7" d="M634.33,422.89h12.78v1.79h-10.56v6.61h8.63v1.81h-8.63v8.5h-2.22v-18.7h0Z"/>
  <path class="st7" d="M675.77,422.89v11.1c0,5.94-3.67,7.93-7.96,7.93s-7.82-1.99-7.82-7.93v-11.1h2.17v11.1c0,4.62,2.63,6.07,5.65,6.07s5.73-1.45,5.73-6.07v-11.1h2.23Z"/>
  <path class="st7" d="M693.71,424.68h-7.13v-1.79h16.51v1.79h-7.15v16.92h-2.22v-16.92h-.01Z"/>
  <path class="st7" d="M729.86,422.89v11.1c0,5.94-3.67,7.93-7.96,7.93s-7.82-1.99-7.82-7.93v-11.1h2.17v11.1c0,4.62,2.63,6.07,5.65,6.07s5.73-1.45,5.73-6.07v-11.1h2.23Z"/>
  <path class="st7" d="M756.95,441.59l-5.76-8.06h-4.58v8.06h-2.12v-18.7h6.65c4.61,0,7.72,1.35,7.72,5.18,0,2.93-2.09,4.67-5.41,5.15l6.03,8.37h-2.53ZM746.61,431.82h4.15c3.75,0,5.84-1.2,5.84-3.75s-2.12-3.44-5.84-3.44h-4.15v7.19Z"/>
  <path class="st7" d="M772.42,422.89h12.75v1.79h-10.58v6.17h8.57v1.81h-8.57v7.12h10.91v1.81h-13.08v-18.7h0Z"/>
  <rect class="st7" x="107.05" y="422.89" width="2.2" height="19.03"/>
  <rect class="st7" x="153.42" y="422.89" width="2.2" height="19.03"/>
  <rect class="st7" x="287.41" y="422.89" width="2.2" height="19.03"/>
  <rect class="st7" x="433.91" y="422.89" width="2.2" height="19.03"/>
  <path class="st7" d="M262.3,432.66c0,1.15-.93,2.09-2.09,2.09s-2.09-.93-2.09-2.09.93-2.09,2.09-2.09,2.09.93,2.09,2.09Z"/>
  <path class="st7" d="M608.44,432.66c0,1.15-.93,2.09-2.09,2.09s-2.09-.93-2.09-2.09.93-2.09,2.09-2.09,2.09.93,2.09,2.09Z"/>
  <g>
    <polygon class="st5" points="188.61 470.45 222.75 470.45 222.75 475.93 227.64 475.93 227.64 467.03 208.13 467.03 208.13 462.53 202.7 462.53 202.7 467.03 184.5 467.03 184.5 475.93 188.61 475.93 188.61 470.45"/>
    <path class="st5" d="M221.09,476.91h-5.09s.09,2.43.11,4.89h-19.43c.27-1.76.53-3.03.53-3.03l1.57-2.35h-6.46s-.19,1.95-.58,5.38h-9.2v3.49h8.78c-.63,4.44-1.59,7,5.01,11.67,1.58,1.11,3.45,2.17,5.49,3.16-8.07,3.08-18.01,4.96-18.01,4.96v3.91s13.09-2.96,22.72-6.81c10.53,4.23,22.68,6.81,22.68,6.81v-4.11c-5.75-.84-12.02-2.83-17.53-5.06.38-.2.75-.41,1.09-.62,8.61-5.18,8.32-11.25,8.32-11.25v-2.67h8.12v-3.49h-8.12v-4.89h0ZM210.62,495.2c-.88.91-2.14,1.78-3.63,2.59-5.59-2.6-9.68-5.18-10.36-6.41-.63-1.14-.61-3.63-.38-6.1h19.85c-.1,2.8.2,4.04-5.48,9.91h0Z"/>
    <path class="st5" d="M257.28,468.69h36v33.31c0,1.43-1.16,2.59-2.59,2.59h-6.7v3.72h9.93c2.35,0,4.26-1.91,4.26-4.26v-35.36h6.26v-3.72h-47.15v3.72h-.01Z"/>
    <path class="st5" d="M262.17,498.23h19.52c1.11,0,2.01-.9,2.01-2.01v-20.98h-21.52v22.99h-.01ZM266.48,479.06h12.52v15.36h-12.52v-15.36Z"/>
    <polygon class="st5" points="352.66 487.28 345.13 487.28 345.13 483.56 340.73 483.56 340.73 487.28 332.22 487.28 332.22 490.8 340.73 490.8 340.73 508.21 345.13 508.21 345.13 490.8 352.66 490.8 352.66 487.28"/>
    <path class="st5" d="M330.65,503.42l1.57,2.15c3.91-2.15,6.46-8.32,6.46-8.32v-4.3h-1.66c-1.66,6.26-6.36,10.47-6.36,10.47h-.01Z"/>
    <polygon class="st5" points="376.63 487.28 368.12 487.28 368.12 483.56 363.72 483.56 363.72 487.28 356.18 487.28 356.18 490.8 363.72 490.8 363.72 508.21 368.12 508.21 368.12 490.8 376.63 490.8 376.63 487.28"/>
    <path class="st5" d="M353.64,503.42l1.57,2.15c3.91-2.15,6.46-8.32,6.46-8.32v-4.3h-1.66c-1.66,6.26-6.36,10.47-6.36,10.47h-.01Z"/>
    <polygon class="st5" points="348.75 492.46 346.5 493.93 352.03 504.15 353.64 502.54 348.75 492.46"/>
    <path class="st5" d="M372.07,492.95h-1.96v3.88c.65,3.39,6.2,8.74,6.2,8.74l2.28-2.02c-3.65-3.33-6.52-10.6-6.52-10.6h0Z"/>
    <path class="st5" d="M352.08,470.78v12.78h4.5v-13.3h1.83c1.05,2.08,5.91,10.24,18.22,12.62v-3.33s-11.28-5.01-14.46-9.29h13.87v-3.42h-19.47v-4.4h-4.5v4.4h-18.88v3.42h14.77c-1.88,1.79-7.26,6.39-15.29,9.03v3.39s12.17-2.1,19.4-11.9h.01Z"/>
    <polygon class="st5" points="417 484.9 420.59 484.9 420.59 474.92 430.57 474.92 430.57 472.18 420.59 472.18 420.59 462.59 417 462.59 417 472.18 406.11 472.18 406.11 474.92 417 474.92 417 484.9"/>
    <polygon class="st5" points="414 469.44 410.41 463.51 407.02 464.16 409.83 469.44 414 469.44"/>
    <polygon class="st5" points="430.57 463.77 426.59 463.77 423.13 469.96 426.59 469.96 430.57 463.77"/>
    <polygon class="st5" points="422.22 477.85 428.8 485.48 430.89 483.66 424.96 477.27 422.22 477.85"/>
    <polygon class="st5" points="415.3 478.9 413.74 476.75 405.52 482.35 406.57 485.48 415.3 478.9"/>
    <path class="st5" d="M426.55,486.98h-3.42c.06,1.06.16,2.06.23,3h-8.82l.77-3h-4.11s-.04.93-.38,3h-5.29v2.61h4.81c-.26,1.28-.59,2.79-1.03,4.57,1.27,1.87,3.54,3.63,6.08,5.16-4.97,2.3-10.39,2.93-10.39,2.93v3.78c5.42-.77,10.3-2.61,14.06-4.72,4.98,2.46,9.81,4,9.81,4v-3.46c-2.5-.55-4.8-1.43-6.83-2.43,2.52-1.83,4.15-3.68,4.52-5.14.34-1.34.43-3.05.42-4.7h2.68v-2.61h-2.79c-.12-1.73-.31-3-.31-3h0ZM419.09,500.16c-.16.12-.34.23-.5.35-3.51-2.21-5.63-4.33-5.63-4.33l.92-3.59h9.56c-.1,2.69-.98,5.04-4.34,7.57h-.01Z"/>
    <path class="st5" d="M443.55,495.95c4.71-9.6,5.38-16.67,5.4-23.32h2.87v-2.67h-13.17l2.38-7.63h-4.28l-5.87,18.78h3.13c.95,6.21,2.95,11.27,5.26,15.3-.12.18-.24.37-.37.55-5.67,7.43-7.57,8.15-7.57,8.15v3.46s5.43-2.08,10.02-8.87c4.54,6.44,9.35,9.33,9.35,9.33l1.83-3.91c-3.81-2-6.75-5.43-8.99-9.16h.01ZM437.22,478.96h-1.37l1.98-6.33h7.43c.04,2.12,0,11.36-3.69,19.6-3.19-6.75-4.35-13.27-4.35-13.27h0Z"/>
    <path class="st5" d="M506.35,488.45l11.54-7.92-.59-4.4h-29.64v4.11h22.6l-9.78,6.55v2.84h-20.15v3.42h20.15v11.64h-7.63v3.62h9.39c3.72,0,4.11-3.91,4.11-3.91v-11.35h20.54v-3.42h-20.54v-1.17h0Z"/>
    <polygon class="st5" points="486.1 470.45 520.14 470.45 520.14 476.13 525.42 476.13 525.42 466.64 505.37 466.64 505.37 462.53 500.48 462.53 500.48 466.64 481.7 466.64 481.7 476.13 486.1 476.13 486.1 470.45"/>
    <path class="st5" d="M639.98,473.42h4.37v-3.26h-4.37v-7.63h-4.04l.02,7.63h-6.02v3.26h6.03l.04,12.39-6.53,1.57v4.04l6.54-1.74.05,15.31h-5.28v3.13s3.52.26,6.36,0c2.84-.26,2.84-3.13,2.84-3.13v-16.36l4.7-1.25v-3.65l-4.7,1.13v-11.43h0Z"/>
    <path class="st5" d="M677.8,505.05c-4.94-1.26-9.21-3.6-12.75-6.22,7.5-6.44,9.75-12.89,9.75-12.89v-5.35h-11.22v-8.15h13.24v-3.26h-13.24v-6.65h-4.3v6.65h-11.48v3.26h11.48v8.15h-11.48v3.13h22.17c-1.37,5.15-4.58,9.26-8.21,12.43-5.56-4.97-8.55-9.95-8.55-9.95l-3.98,1.37c3.07,4.64,6.25,8.25,9.33,11.08-6.09,4.29-12.2,6.2-12.2,6.2v3.85c6.42-1.9,11.47-4.52,15.42-7.32,8.81,6.81,16.02,7.32,16.02,7.32v-3.65h0Z"/>
    <polygon class="st5" points="596.54 462.53 592.04 462.53 592.04 492.19 575.8 493.38 575.8 497.03 592.04 495.92 592.04 508.23 596.54 508.23 596.54 495.61 602.54 495.2 602.54 491.42 596.54 491.86 596.54 462.53"/>
    <path class="st5" d="M555.55,468.69s3.83-.29,8.02-.64v7.98h-8.02v3.03h8.02v29.64h4.4v-29.64h6.16v-3.03h-6.16v-8.37c3.02-.28,5.57-.56,6.16-.73v-3.72s-12.13,1.66-18.59,1.96v3.52h.01Z"/>
    <polygon class="st5" points="569.84 483.07 569.84 489.14 572.87 499.21 574.14 499.21 574.14 490.41 571.21 483.07 569.84 483.07"/>
    <path class="st5" d="M553.7,499.9l1.86,1.96c4.7-4.89,5.87-13.99,5.87-13.99v-6.03h-1.96c-1.86,12.55-5.77,18.07-5.77,18.07h0Z"/>
    <polygon class="st5" points="587.93 484.64 578.48 477.54 576.98 480.92 586.63 487.57 587.93 484.64"/>
    <polygon class="st5" points="589.17 473.42 580.89 465.95 578.28 468.07 587.28 475.51 589.17 473.42"/>
  </g>
  <rect class="st8" x="557.74" y="67.11" width="21.07" height="20.54"/>
  <rect class="st8" x="592.37" y="75.01" width="11.8" height="12.65"/>
  <rect class="st8" x="600.13" y="48.33" width="12.2" height="12.2"/>
  <rect class="st8" x="570.78" y="41.94" width="9.39" height="9.39"/>
  <rect class="st8" x="541.7" y="43.11" width="11.93" height="11.93"/>
  <rect class="st8" x="533.09" y="89.29" width="17.54" height="17.54"/>
  <rect class="st8" x="587.48" y="20.03" width="11.35" height="10.43"/>
</svg>